<svg width="179" height="179" viewBox="0 0 179 179" fill="none" xmlns="http://www.w3.org/2000/svg">
<path d="M0 89.5V179H89.5H179V89.5V0H89.5H0V89.5ZM74.285 44.2528V47.8328L71.1028 47.9521C62.3119 48.2902 60.3429 49.5233 59.249 55.2911C59.0899 56.1463 58.9507 60.4423 58.8711 67.9206C58.712 79.6351 58.6921 80.013 57.817 82.5389C57.28 84.0902 56.4646 85.5023 55.6093 86.278C54.7342 87.0934 52.4669 88.5056 52.0293 88.5056C51.91 88.5056 51.7111 88.5851 51.6117 88.6647C51.3531 88.8834 49.2051 89.5597 47.5344 89.9574C44.8892 90.5939 43.3976 90.8922 42.9998 90.8922C42.4628 90.8922 42.2639 91.2303 42.7014 91.3497C42.9003 91.4093 43.9147 91.6082 44.9489 91.7872C48.33 92.4038 50.5774 93.1198 52.8846 94.3131C55.2314 95.5462 56.4844 96.9186 57.5386 99.4444C58.0358 100.638 58.2347 101.394 58.6722 103.82C58.7717 104.317 58.8512 108.613 58.8512 113.367C58.8711 122.337 59.0103 124.146 59.8059 126.613C60.9197 130.093 63.4257 131.167 71.0033 131.446L74.285 131.565L74.2452 135.046L74.2054 138.526H69.273C64.2411 138.526 63.1074 138.427 59.7064 137.611C54.1177 136.259 51.5122 133.693 50.2592 128.283C49.5034 125.041 49.4637 124.485 49.3244 115.455C49.1454 104.914 49.0858 104.417 47.4947 101.274C46.3411 99.0467 44.6506 97.3163 42.6617 96.302C40.3148 95.1484 39.4993 95.0092 34.4674 94.9098C29.9726 94.8302 29.8731 94.8103 29.7538 94.3927C29.6941 94.1739 29.6344 92.5629 29.6344 90.8326V87.71L30.1516 87.5111C30.43 87.3918 32.6377 87.3122 35.0641 87.3122C38.7833 87.3122 39.6982 87.2526 40.8717 86.9343C42.6816 86.4371 43.7158 86.0393 43.9942 85.7609C44.1334 85.6217 44.3522 85.5222 44.4716 85.5222C44.9688 85.5222 46.8582 83.3742 47.4748 82.1212C49.1057 78.7998 49.1454 78.4219 49.3046 65.335C49.404 57.3794 49.5233 53.6403 49.7023 52.805C51.1542 46.0229 53.342 43.3976 58.8711 41.8263C62.0533 40.9313 65.1958 40.6131 70.8044 40.6529L74.285 40.6728V44.2528ZM116.33 41.0706C123.928 42.4628 126.672 44.6307 128.343 50.5178C129.178 53.4613 129.278 55.0326 129.278 65.2554C129.278 77.2286 129.437 78.6606 131.147 82.1212C131.744 83.3742 133.633 85.5222 134.131 85.5222C134.25 85.5222 134.469 85.6217 134.608 85.7609C134.727 85.8802 135.165 86.1189 135.583 86.2581C137.929 87.1332 138.268 87.173 143.459 87.2923C147.715 87.3918 148.61 87.4713 148.769 87.71C148.968 88.0282 149.047 93.6966 148.848 94.3927C148.729 94.8103 148.63 94.8302 144.135 94.9098C139.103 95.0092 138.287 95.1484 135.941 96.302C132.957 97.7937 130.809 100.797 129.735 104.914C129.497 105.869 129.397 108.017 129.298 115.356C129.198 120.785 129.059 125.022 128.92 125.598C128.8 126.135 128.602 127.03 128.482 127.587C128.363 128.124 128.224 128.8 128.164 129.079C127.746 130.929 126.334 133.474 124.982 134.767C123.689 135.98 122.555 136.517 119.035 137.631C118.458 137.81 117.205 138.029 114.361 138.427C112.313 138.725 104.476 138.685 104.377 138.367C104.337 138.248 104.317 136.657 104.317 134.847V131.565L107.599 131.446C115.177 131.167 117.683 130.093 118.796 126.613C119.592 124.146 119.731 122.337 119.751 113.367C119.751 108.613 119.831 104.317 119.93 103.82C120.368 101.394 120.566 100.638 121.064 99.4444C122.158 96.8191 123.55 95.3672 126.195 94.0943C128.621 92.9209 130.451 92.364 133.753 91.7872C134.847 91.5883 135.861 91.4093 136 91.3696C136.378 91.2502 136.08 90.8922 135.602 90.8922C135.205 90.8922 133.713 90.5939 131.068 89.9574C129.397 89.5597 127.249 88.8834 126.991 88.6647C126.891 88.5851 126.692 88.5056 126.573 88.5056C126.135 88.5056 123.868 87.0934 122.993 86.278C122.138 85.5023 121.322 84.0902 120.785 82.5389C119.91 80.013 119.89 79.6351 119.731 67.9206C119.652 60.4423 119.512 56.1463 119.353 55.2911C118.259 49.5233 116.29 48.2902 107.499 47.9521L104.317 47.8328L104.258 44.4517C104.238 42.602 104.258 40.9512 104.317 40.7921C104.417 40.5534 105.172 40.5336 109.528 40.633C112.77 40.7126 115.236 40.8717 116.33 41.0706Z" fill="white"/>
</svg>
