<svg width="200" height="200" viewBox="0 0 200 200" fill="none" xmlns="http://www.w3.org/2000/svg">
<g clip-path="url(#clip0_61_543)">
<path d="M29.3927 3.28899C29.0075 3.43713 28.0001 3.67418 27.1705 3.82233C25.689 4.08899 24.9186 4.2964 22.3705 5.27417C20.1779 6.10381 16.2075 8.08899 15.7038 8.5927C15.6149 8.68158 14.963 9.15565 14.2223 9.62973C11.9408 11.1705 7.58527 15.7038 5.89638 18.3705C2.84453 23.1112 1.12601 27.4075 0.326009 32.326C-0.118435 35.0816 -0.118435 165.511 0.326009 168.267C1.09638 173.126 2.84453 177.482 5.80749 182.074C7.43712 184.652 12.089 189.541 14.2223 190.963C14.963 191.437 15.6149 191.911 15.7038 192C16.089 192.385 20.8297 194.756 22.3705 195.319C25.0668 196.326 25.689 196.504 27.1705 196.77C28.0297 196.919 29.0668 197.185 29.4816 197.333C30.5482 197.748 168.859 197.748 169.926 197.333C170.341 197.185 171.378 196.919 172.237 196.77C173.719 196.504 174.341 196.326 177.037 195.319C178.578 194.756 183.319 192.385 183.704 192C183.793 191.911 184.445 191.437 185.185 190.963C187.319 189.541 191.852 184.77 193.57 182.133C196.504 177.63 198.548 172.533 198.963 168.652C199.111 167.378 199.289 166.815 199.585 166.815C199.941 166.815 200 157.156 200 100.296C200 43.4371 199.941 33.7779 199.585 33.7779C199.289 33.7779 199.111 33.2149 198.963 31.9112C198.548 28.0594 196.563 23.0816 193.6 18.5186C191.97 15.9408 187.319 11.052 185.185 9.62973C184.445 9.15565 183.793 8.68158 183.704 8.5927C183.2 8.08899 179.23 6.10381 177.037 5.27417C174.489 4.2964 173.719 4.08899 172.237 3.82233C171.378 3.67418 170.341 3.40752 169.926 3.25937C168.889 2.87418 30.3705 2.87418 29.3927 3.28899ZM165.837 11.4075C170.193 12.2964 174.667 13.9853 176.8 15.5853C177.304 15.9705 177.837 16.2964 177.926 16.2964C178.815 16.2964 184.415 21.8075 186.045 24.2964C187.408 26.3705 187.793 26.9927 188.03 27.5556C188.504 28.6816 189.156 30.1334 189.541 30.8742C189.748 31.289 189.926 31.9408 189.926 32.2964C189.926 32.6519 190.074 33.1853 190.252 33.5112C190.4 33.8371 190.756 35.3779 190.993 36.9482C191.348 39.3779 191.408 49.0668 191.408 100.296C191.408 153.511 191.348 161.156 190.933 163.882C190.696 165.57 190.37 167.082 190.193 167.259C190.045 167.407 189.926 167.822 189.926 168.148C189.926 168.859 188.119 173.185 187.585 173.719C187.408 173.896 187.259 174.163 187.259 174.282C187.259 174.874 184.326 178.696 182.548 180.445C180.326 182.637 178.282 184.296 177.808 184.296C177.63 184.296 177.482 184.415 177.482 184.593C177.482 184.948 171.882 187.615 169.778 188.237C164.83 189.689 168.119 189.63 99.7038 189.63C31.289 189.63 34.5779 189.689 29.6297 188.237C27.526 187.615 21.926 184.948 21.926 184.593C21.926 184.415 21.7779 184.296 21.6001 184.296C20.5334 184.296 13.0371 176.919 13.0371 175.911C13.0371 175.822 12.6519 175.17 12.2075 174.459C11.0519 172.682 10.6668 171.822 9.18527 167.704C8.14823 164.8 8.14823 163.911 8.14823 100.296C8.14823 36.6816 8.14823 35.7927 9.18527 32.889C10.6668 28.7705 11.0519 27.9112 12.2075 26.1334C12.6519 25.4223 13.0371 24.7705 13.0371 24.6816C13.0371 23.6742 20.5334 16.2964 21.6001 16.2964C21.7779 16.2964 21.926 16.1779 21.926 16.0001C21.926 15.6742 26.6668 13.3038 28.889 12.5631C29.7186 12.2964 31.4964 11.8223 32.889 11.5557C35.2297 11.0816 39.9112 11.0223 99.4668 10.9927C156.208 10.9631 163.793 11.0223 165.837 11.4075Z" fill="white"/>
<path d="M86.3408 50.4889C86.0149 50.726 85.3927 51.6741 84.9186 52.6519C84.4742 53.6001 83.9704 54.5778 83.8223 54.8149C83.6742 55.0519 83.4667 55.4667 83.3779 55.7038C83.1704 56.2964 82.4297 57.8964 80.889 61.1852C80.2075 62.6371 79.2297 64.7112 78.7556 65.7778C78.2816 66.8445 77.7482 67.9112 77.6001 68.1482C77.4519 68.3852 77.2445 68.8001 77.1556 69.0371C76.9482 69.6297 76.4149 70.8445 75.289 73.2445C73.926 76.2371 72.5927 79.1408 72.1186 80.2075C71.8816 80.7408 71.526 81.6297 71.289 82.1334C71.0519 82.6667 70.7853 83.3482 70.6964 83.6149C70.4001 84.563 69.6297 84.2075 69.0667 82.8741C68.7704 82.1926 68.089 80.6815 67.5556 79.5556C65.0075 74.0149 64.5334 72.9482 64.089 72.0001C63.8519 71.4371 63.526 70.7556 63.3779 70.5186C63.2297 70.2815 63.0223 69.8667 62.9334 69.6297C62.6667 69.0075 61.363 66.163 59.7038 62.6667C58.1927 59.4667 57.6001 58.163 57.363 57.4815C57.2741 57.2445 57.0667 56.8001 56.889 56.5038C56.7408 56.2371 56.4445 55.763 56.2964 55.4667C56.1186 55.2001 55.9112 54.7556 55.8223 54.5186C55.4075 53.4815 54.6371 51.9408 54.1334 51.1704L53.6001 50.3704H45.8964C39.0519 50.3704 38.1927 50.4297 38.0149 50.8445C37.926 51.1112 37.9853 51.5556 38.163 51.8223C38.3408 52.0889 40.6519 56.563 43.2593 61.7778C45.8964 66.9926 48.1482 71.4667 48.2964 71.7038C48.4445 71.9408 49.2445 73.5408 50.0741 75.2593C51.4964 78.1926 51.8816 78.9038 52.5038 80.0001C52.6223 80.2371 52.8297 80.6519 52.9186 80.8889C53.3334 81.8964 54.4001 84.0297 55.1112 85.2445C55.289 85.5408 55.4964 85.9852 55.5853 86.2223C55.6741 86.4593 55.8816 86.8741 56.0297 87.1112C56.1779 87.3482 56.3853 87.763 56.4741 88.0001C56.563 88.2371 56.7704 88.6519 56.9186 88.8889C57.0667 89.126 57.2741 89.5408 57.363 89.7778C57.4519 90.0149 57.6593 90.4297 57.8075 90.6667C57.9556 90.9038 58.163 91.3186 58.2519 91.5556C58.3408 91.7926 58.5186 92.2075 58.6667 92.4445C58.8149 92.6815 59.2297 93.4519 59.5556 94.1334L60.2075 95.4075L59.5556 96.6519C58.9334 97.926 58.6371 98.4889 58.0741 99.4667C57.926 99.763 57.4519 100.652 57.0371 101.482C56.6223 102.282 56.1482 103.17 56.0001 103.407C55.8519 103.644 55.6741 104.059 55.5556 104.296C55.4667 104.533 54.7556 105.926 53.9556 107.407C53.1556 108.859 51.763 111.526 50.8149 113.333C49.8964 115.111 48.4741 117.778 47.7038 119.259C46.9038 120.711 45.7186 122.993 45.0667 124.296C44.3853 125.6 42.7853 128.652 41.4816 131.111C40.2075 133.541 38.8149 136.237 38.4001 137.096C37.9556 137.926 37.4816 138.726 37.3334 138.815C37.1556 138.904 37.0371 139.2 37.0371 139.437C37.0371 139.793 38.2223 139.852 44.7408 139.852H52.4445L53.1853 138.667C53.6001 138.015 53.926 137.304 53.926 137.067C53.926 136.859 54.1334 136.504 54.3704 136.296C54.6075 136.089 54.8149 135.793 54.8149 135.585C54.8149 135.407 55.4075 134.015 56.1482 132.533C56.889 131.022 58.0741 128.474 58.8445 126.874C59.5853 125.304 60.326 123.793 60.4741 123.556C60.6223 123.319 60.8297 122.904 60.9186 122.667C61.126 122.074 61.689 120.83 62.8149 118.37C63.3482 117.215 64.1482 115.467 64.6223 114.43C65.0964 113.422 65.8964 111.704 66.4001 110.578C67.7038 107.733 68.089 106.874 68.2667 106.282C68.563 105.304 69.3038 105.778 70.1038 107.467C70.5186 108.415 70.9927 109.393 71.1408 109.63C71.289 109.867 71.4964 110.282 71.5853 110.519C71.6741 110.756 71.8816 111.17 72.0297 111.407C72.1779 111.644 72.3853 112.059 72.4742 112.296C73.0075 113.57 80.5334 129.185 80.9186 129.778C81.0667 130.015 81.2742 130.43 81.363 130.667C81.6297 131.319 83.289 134.874 83.5853 135.407C83.7038 135.644 84.2371 136.682 84.7112 137.689C85.2149 138.696 85.8667 139.674 86.1927 139.852C86.5482 140.03 89.5704 140.148 94.163 140.148C102.904 140.148 102.904 140.148 101.333 137.393C100.859 136.593 100.563 136 99.2593 133.482C98.5779 132.178 97.926 130.904 97.7779 130.667C97.6297 130.43 97.4519 130.015 97.3334 129.778C97.2445 129.541 96.326 127.733 95.2593 125.778C94.2223 123.822 92.6223 120.741 91.7038 118.963C90.0149 115.644 89.7186 115.082 89.1853 114.133C89.0371 113.867 88.3556 112.563 87.6742 111.259C87.0223 109.956 85.8075 107.615 84.9779 106.074C84.1482 104.533 82.5482 101.452 81.4223 99.2593C80.2964 97.0667 79.2593 95.1408 79.0816 94.963C78.6667 94.5482 78.7556 93.4519 79.2593 93.0371C79.4964 92.8297 79.7038 92.4149 79.7038 92.1186C79.7038 91.8223 79.8223 91.526 79.9704 91.4371C80.089 91.3482 80.9779 89.7778 81.8964 87.9408C82.8149 86.1038 84.8297 82.1926 86.3704 79.2593C87.8816 76.326 89.8964 72.4445 90.8149 70.6667C91.7334 68.8593 92.6223 67.1704 92.7705 66.8741C92.9186 66.6075 93.1556 66.1334 93.3038 65.8371C93.4519 65.5704 94.3408 63.8519 95.2593 62.0741C96.1779 60.2667 97.8667 57.0371 98.9927 54.8445C100.593 51.763 100.978 50.8149 100.711 50.4889C100.207 49.8667 87.2001 49.8964 86.3408 50.4889Z" fill="white"/>
<path d="M144.326 50.7557C144.119 51.052 143.971 54.6371 143.941 62.1038L143.852 73.0372L138.963 73.2149C134.252 73.3631 132.652 73.6001 129.185 74.5779C125.897 75.526 122.163 77.3631 119.408 79.4372C117.363 80.9779 112.593 85.7483 112.593 86.2816C112.593 86.4001 112.237 86.9927 111.822 87.6149C111.408 88.2372 110.934 89.0075 110.785 89.3335C110.637 89.6594 110.4 90.1334 110.252 90.3705C109.689 91.3186 108.652 93.926 107.852 96.4446C106.46 100.741 105.926 110.282 106.815 115.259C107.348 118.341 108 120.8 108.622 122.311C108.86 122.845 109.037 123.467 109.037 123.674C109.037 124.178 110.993 127.882 111.882 129.096C112.267 129.6 112.593 130.133 112.593 130.282C112.593 130.608 116.089 134.193 117.482 135.289C118.134 135.822 119.2 136.533 119.852 136.889C120.504 137.245 121.63 137.837 122.341 138.252C123.052 138.637 123.822 138.963 124.03 138.963C124.237 138.963 124.771 139.141 125.245 139.378C126.519 140.03 128.385 140.415 132.445 140.948C135.585 141.333 136.83 141.363 140.593 141.067C144.83 140.741 148.445 140.178 150.371 139.496C150.874 139.348 151.585 139.141 152 139.052C152.415 138.993 153.156 138.726 153.63 138.519C156.059 137.452 156.8 137.185 157.126 137.185C157.334 137.185 157.778 136.948 158.163 136.652L158.845 136.119L158.815 93.7186C158.815 70.3705 158.726 51.0816 158.637 50.8149C158.489 50.4297 157.482 50.3705 151.556 50.3705C146.163 50.3705 144.593 50.4594 144.326 50.7557ZM142.015 85.6297C142.459 85.6297 143.082 85.8964 143.408 86.2223C144 86.8149 144 87.2001 144 106.904C144 123.763 143.941 127.082 143.585 127.585C143.2 128.089 142.697 128.148 138.845 128.237C135.052 128.326 134.282 128.267 132.711 127.704C130.43 126.933 127.911 125.333 126.341 123.645C124.919 122.133 122.371 117.215 122.371 115.941C122.371 115.467 122.222 114.933 122.045 114.756C121.274 113.985 121.185 101.363 121.926 100.119C122.074 99.9112 122.282 99.2594 122.4 98.6964C123.319 94.3112 126.963 89.5409 131.171 87.1705C133.304 85.9853 136.948 85.2742 139.704 85.5112C140.534 85.5705 141.541 85.6297 142.015 85.6297Z" fill="white"/>
</g>
<defs>
<clipPath id="clip0_61_543">
<rect width="200" height="200" fill="white"/>
</clipPath>
</defs>
</svg>
