<svg width="80" height="80" viewBox="0 0 80 80" fill="none" xmlns="http://www.w3.org/2000/svg">
<path d="M0 0L36.8 36.8H41.6L45.44 45.44L80 80V0H0Z" fill="white"/>
<path d="M64.0938 26.625H62.5312C62.324 26.625 62.1253 26.7073 61.9788 26.8538C61.8323 27.0003 61.75 27.199 61.75 27.4062V32.875H46.125V17.25H53.1562C53.3635 17.25 53.5622 17.1677 53.7087 17.0212C53.8552 16.8747 53.9375 16.676 53.9375 16.4688V14.9062C53.9375 14.699 53.8552 14.5003 53.7087 14.3538C53.5622 14.2073 53.3635 14.125 53.1562 14.125H45.3438C44.7221 14.125 44.126 14.3719 43.6865 14.8115C43.2469 15.251 43 15.8471 43 16.4688V33.6562C43 34.2779 43.2469 34.874 43.6865 35.3135C44.126 35.7531 44.7221 36 45.3438 36H62.5312C63.1529 36 63.749 35.7531 64.1885 35.3135C64.6281 34.874 64.875 34.2779 64.875 33.6562V27.4062C64.875 27.199 64.7927 27.0003 64.6462 26.8538C64.4997 26.7073 64.301 26.625 64.0938 26.625ZM66.8281 11H60.5781C59.5347 11 59.0132 12.2651 59.748 13.002L61.4927 14.7466L49.5918 26.6431C49.4825 26.7519 49.3959 26.8813 49.3367 27.0237C49.2776 27.1662 49.2471 27.3189 49.2471 27.4731C49.2471 27.6274 49.2776 27.7801 49.3367 27.9225C49.3959 28.065 49.4825 28.1944 49.5918 28.3032L50.6987 29.4082C50.8076 29.5175 50.937 29.6041 51.0794 29.6633C51.2219 29.7224 51.3746 29.7529 51.5288 29.7529C51.683 29.7529 51.8358 29.7224 51.9782 29.6633C52.1206 29.6041 52.25 29.5175 52.3589 29.4082L64.2539 17.5098L65.998 19.252C66.7305 19.9844 68 19.4717 68 18.4219V12.1719C68 11.8611 67.8765 11.563 67.6568 11.3432C67.437 11.1235 67.1389 11 66.8281 11V11Z" fill="#294075"/>
</svg>
