<svg width="200" height="200" viewBox="0 0 200 200" fill="none" xmlns="http://www.w3.org/2000/svg">
<path d="M0 100V200H100H200V100V0H100H0V100ZM182.8 44.8889C183.111 45.1555 181.644 49.8667 180.178 53.2C179.822 53.9556 179.556 54.8889 179.556 55.2444C179.556 55.6444 179.378 56.0444 179.156 56.2222C178.933 56.3555 178.622 57.0667 178.444 57.8222C178.267 58.5778 177.867 59.6889 177.511 60.3555C177.156 61.0222 176.889 61.9111 176.889 62.3111C176.889 62.7111 176.711 63.2 176.444 63.3333C176.222 63.4667 176 63.9556 176 64.3555C175.956 64.7556 175.6 65.9111 175.111 66.8889C174.622 67.8667 174.267 69.0222 174.222 69.4222C174.222 69.8222 174.044 70.2667 173.822 70.4C173.6 70.5333 173.289 71.2 173.156 71.8667C172.844 73.1111 163.956 97.3333 162.889 99.7778C162.578 100.489 161.956 102.222 161.511 103.556C161.067 104.889 160.444 106.489 160.133 107.111C159.822 107.733 159.556 108.578 159.556 108.978C159.556 109.378 159.378 109.822 159.156 110C158.933 110.133 158.578 110.889 158.4 111.689C158.267 112.444 157.822 113.689 157.511 114.444C157.2 115.156 154.8 121.556 152.178 128.667C149.556 135.733 146.578 143.778 145.511 146.533C144.444 149.289 143.556 151.822 143.556 152.178C143.556 152.533 143.378 152.933 143.156 153.111C142.933 153.244 142.622 153.956 142.444 154.711C142.267 155.556 141.733 156.222 141.022 156.489C140.444 156.711 134.089 156.889 126.889 156.889H113.822L106.978 150C103.2 146.222 99.8222 143.111 99.5111 143.111C99.1556 143.156 95.9111 146.044 92.2222 149.6C88.5778 153.156 85.2444 156.267 84.8 156.489C84.4 156.711 78.1778 156.889 70.9778 156.889C55.8667 156.889 56.7556 157.156 55.1111 152.444C54.5778 150.844 53.8667 148.933 53.5556 148.222C52.5778 145.956 46.2222 128.622 46.2222 128.267C46.2222 128.089 45.8667 127.111 45.3778 126.089C44.6222 124.4 43.7778 122.133 40.5778 113.111C39.9556 111.378 39.2 109.378 38.8889 108.667C38.5778 107.911 36.1778 101.511 33.5556 94.4444C30.9333 87.3333 28.1333 79.8222 27.2889 77.6889C26.4444 75.5111 25.7778 73.6 25.7778 73.3778C25.7778 73.1556 25.2889 71.7778 24.7111 70.3555C24.1333 68.9333 23.0222 65.9556 22.2222 63.7778C21.4222 61.5556 20.4 58.9333 19.9556 57.9111C19.4667 56.8889 19.1111 55.8667 19.1111 55.6889C19.1111 55.2 16.5333 48.4 16 47.4667C15.7333 47.0222 15.5556 46.1778 15.5556 45.5556V44.4444H36.4C52.5333 44.4444 57.3333 44.5778 57.6889 45.0222C57.9556 45.2889 58.5778 46.6667 59.0667 48C59.6 49.3333 60.2222 50.8444 60.4444 51.3333C60.6667 51.8222 61.8667 54.8 63.1556 58C64.4 61.1555 65.6889 64.3555 66 65.1111C66.3111 65.8222 66.9333 67.4222 67.3333 68.6667C67.7778 69.8667 68.2667 71.0667 68.4444 71.3333C68.6222 71.5556 69.1111 72.7556 69.5556 74C69.9556 75.2 70.5778 76.8 70.9333 77.5555C71.2444 78.2667 72.2222 80.6667 73.1111 82.8889C73.9556 85.0667 74.8889 87.2889 75.1111 87.7778C75.3333 88.2667 75.9556 89.7778 76.4444 91.1111C76.9333 92.4444 77.5556 93.9556 77.7778 94.4444C77.9556 94.9333 79.6444 99.1111 81.5111 103.733C83.3778 108.356 85.0667 112.356 85.2889 112.578C85.5556 112.844 85.9111 112.578 86.2667 111.956C87.7333 109.2 98.7111 92.8889 99.1111 92.8889C99.7778 92.8889 100.756 94.0889 103.644 98.6667C109.511 107.822 112.667 112.444 113.156 112.444C113.422 112.444 114.311 110.711 115.111 108.533C115.911 106.4 116.889 103.867 117.333 102.889C117.733 101.911 118.444 100.222 118.844 99.1111C119.289 98 119.822 96.7111 120.044 96.2222C120.267 95.7333 120.844 94.2222 121.333 92.8889C121.822 91.5555 122.444 90.0444 122.667 89.5555C122.889 89.0667 123.511 87.5555 124 86.2222C124.533 84.8889 125.156 83.3778 125.378 82.8889C125.6 82.4 127.467 77.7778 129.511 72.6667C133.2 63.4667 133.956 61.5111 134.711 59.7778C134.933 59.2889 135.511 57.7778 136 56.4444C136.489 55.1111 137.111 53.6 137.289 53.1111C137.511 52.6222 138.356 50.5333 139.2 48.4444L140.711 44.6667L158.222 44.4444C176.356 44.2222 182.178 44.3111 182.8 44.8889Z" fill="white"/>
<path d="M69.3778 120.711C68.2667 121.644 68 122.178 68 123.644C68 125.156 68.2667 125.733 69.4222 126.756C71.2889 128.4 72.4889 128.356 74.1778 126.444C76.2667 124.044 76 122.044 73.3333 120.267C71.8222 119.289 70.9778 119.378 69.3778 120.711Z" fill="white"/>
<path d="M123.867 119.867C123.689 120 123.555 121.511 123.555 123.111C123.555 125.022 123.333 126.267 122.978 126.578C122.667 126.844 121.022 127.111 119.333 127.2L116.222 127.333L116.178 131.778C116.133 134.222 116.311 136.489 116.578 136.8C116.844 137.156 118 137.333 119.867 137.289C121.422 137.244 122.889 137.378 123.111 137.6C123.333 137.822 123.555 139.378 123.644 141.111L123.778 144.222H128.667H133.555L133.689 141.111C133.778 139.378 134 137.822 134.222 137.6C134.444 137.378 135.778 137.244 137.244 137.289C139.022 137.333 140.044 137.111 140.4 136.711C140.756 136.311 140.889 134.578 140.8 131.733L140.667 127.333L137.778 127.2C136.222 127.111 134.667 126.844 134.355 126.578C134 126.267 133.778 124.978 133.778 122.844V119.556H128.978C126.311 119.556 124 119.689 123.867 119.867ZM131.555 121.778C131.555 122.622 129.111 125.778 128.444 125.778C127.911 125.778 125.778 122.489 125.778 121.644C125.778 121.022 126.267 120.889 128.667 120.889C131.244 120.889 131.555 120.978 131.555 121.778ZM120.355 130.311C121.378 131.111 122.222 132 122.222 132.267C122.222 132.933 119.378 135.111 118.489 135.111C118 135.111 117.778 134.667 117.733 133.644C117.733 132.889 117.689 131.467 117.6 130.533C117.422 128.489 117.911 128.444 120.355 130.311ZM139.467 131.778C139.689 135.911 139.156 136.222 136.178 133.644C134.755 132.4 134.844 131.867 136.667 130.622C137.511 130.044 138.222 129.378 138.222 129.2C138.222 128.978 138.489 128.889 138.8 128.978C139.111 129.111 139.378 130.178 139.467 131.778ZM130.444 140.311C131.333 141.511 131.867 142.533 131.644 142.756C131.422 142.978 129.955 143.111 128.4 143.022C126.089 142.933 125.555 142.756 125.6 142.178C125.689 141.378 128 138.222 128.533 138.222C128.711 138.222 129.555 139.156 130.444 140.311Z" fill="white"/>
<path d="M59.5558 129.644C56.978 130.622 56.2225 134.533 58.178 136.622C59.0669 137.556 59.6892 137.778 61.4225 137.778C64.3114 137.778 65.778 136.311 65.778 133.511C65.778 131.956 65.5558 131.422 64.4003 130.489C63.1114 129.378 61.2003 129.067 59.5558 129.644Z" fill="white"/>
<path d="M79.778 130.178C76.8891 131.378 76.3557 134.933 78.7113 137.289C80.2668 138.844 81.6891 139.022 83.4668 137.911C85.2446 136.756 85.7335 135.956 85.7335 134.222C85.778 131.111 82.6668 129.022 79.778 130.178Z" fill="white"/>
</svg>
